<?xml version="1.0" encoding="UTF-8"?>
<svg version="1.1" xmlns="http://www.w3.org/2000/svg" width="772" height="247">
<path d="M0 0 C254.76 0 509.52 0 772 0 C772 81.51 772 163.02 772 247 C517.24 247 262.48 247 0 247 C0 165.49 0 83.98 0 0 Z " fill="#FDFEFE" transform="translate(0,0)"/>
<path d="M0 0 C4.86978733 0.36523405 7.86443934 1.94014273 11.77734375 4.6484375 C14.13219158 6.08038363 16.56096113 7.11045485 19.10229492 8.16552734 C23.08544675 9.91702779 26.85335548 12.11067627 30.65820312 14.21484375 C39.404687 18.97592672 47.34738545 18.85461969 56.8828125 16.4453125 C59.97852525 15.79418473 62.8473992 15.86584677 66 16 C62.92772886 20.09636152 59.84010787 22.91581513 55.6875 25.9375 C51.68136429 29.0045134 51.68136429 29.0045134 50.0625 33.75 C50.79304223 37.05730562 50.79304223 37.05730562 52.9375 39.4375 C57.17373809 41.59884597 60.42408163 41.98336355 65 41 C71.5752107 38.30672148 77.70258706 34.92982541 83.625 31 C87 29 87 29 88.95043945 29.20385742 C91.30317495 30.11776695 93.11132668 31.27312542 95.16796875 32.73828125 C95.97097412 33.30562988 96.77397949 33.87297852 97.60131836 34.45751953 C98.4547583 35.06966309 99.30819824 35.68180664 100.1875 36.3125 C101.06865479 36.93753418 101.94980957 37.56256836 102.85766602 38.20654297 C104.67953201 39.49916368 106.4997513 40.79410828 108.31835938 42.09130859 C110.84577468 43.89022819 113.38144072 45.67656035 115.921875 47.45703125 C117.42708663 48.51301613 118.93229513 49.56900549 120.4375 50.625 C121.12803467 51.10880127 121.81856934 51.59260254 122.5300293 52.09106445 C124.36221272 53.38221569 126.18330478 54.68718063 128 56 C128.97066406 56.69738281 129.94132813 57.39476562 130.94140625 58.11328125 C133 60 133 60 133.5 63.5625 C133 67 133 67 131.875 68.9375 C128.97943506 70.57832013 127.32599813 70.42475689 124 70 C120.89433501 68.29986471 118.12739227 66.20220672 115.3125 64.0625 C113.81086298 62.94615982 112.30704549 61.83274507 110.80078125 60.72265625 C109.81331909 59.97640991 109.81331909 59.97640991 108.8059082 59.21508789 C106.90687727 57.82049979 106.90687727 57.82049979 104 57 C104.02148103 58.85415148 104.02148103 58.85415148 105 61 C107.10269628 62.69721766 109.1191583 64.16648166 111.375 65.625 C111.96539062 66.01945312 112.55578125 66.41390625 113.1640625 66.8203125 C114.76926328 67.89044635 116.38423417 68.94588577 118 70 C119.485 70.99 119.485 70.99 121 72 C121.39964378 75.1305429 121.52149743 77.13083761 119.875 79.875 C117.10784996 81.53529003 115.19122703 81.30447697 112 81 C109.1484375 79.35546875 109.1484375 79.35546875 106.375 77.1875 C105.45460938 76.47980469 104.53421875 75.77210938 103.5859375 75.04296875 C101.98454223 73.7778181 100.3851725 72.51009328 98.7890625 71.23828125 C97.08854694 69.81029446 97.08854694 69.81029446 95 70 C95 70.99 95 71.98 95 73 C96.94800191 74.67475277 98.84607223 76.15316661 100.9375 77.625 C102.05105679 78.42930616 103.16435123 79.23397569 104.27734375 80.0390625 C105.17582031 80.68617188 106.07429688 81.33328125 107 82 C108 83 108 83 108.25 85.375 C108 88 108 88 106.9375 89.875 C104.55430538 91.25879043 102.80321381 91.34439909 100.10546875 90.85546875 C96.27085965 89.29743648 93.33068366 86.50494232 90.234375 83.8125 C88.04559573 81.8196073 88.04559573 81.8196073 85 81 C86.18991811 86.05715197 89.14727921 87.7612852 93.3203125 90.375 C95 92 95 92 95.30859375 94.5703125 C95 97 95 97 93.9375 98.875 C91.55937289 100.255848 89.81031328 100.34483115 87.1171875 99.859375 C82.45235704 97.96590138 78.73579726 94.29982897 75 91 C75.33128906 90.26007813 75.66257812 89.52015625 76.00390625 88.7578125 C77.50763576 84.59454569 77.04197071 82.30681226 76 78 C73.67994969 75.97357892 73.67994969 75.97357892 71 75 C70.34 74.67 69.68 74.34 69 74 C68.39923744 71.72600246 68.0436846 69.44869424 67.66015625 67.12890625 C67.13111321 64.63209975 67.13111321 64.63209975 64 63 C62.865625 62.9175 61.73125 62.835 60.5625 62.75 C57 62 57 62 54.6875 59 C54.130625 58.01 53.57375 57.02 53 56 C49.77140153 54.38570077 46.49006347 54.40429343 43 55 C39.97491855 56.73602105 37.58209931 58.83580137 36 62 C32.23530673 61.32612889 29.45522791 59.63363142 26.1875 57.6875 C18.46169498 53.15229924 10.51958238 49.05184593 2.55737305 44.94995117 C1.11164917 44.20322144 1.11164917 44.20322144 -0.36328125 43.44140625 C-1.66712769 42.77153687 -1.66712769 42.77153687 -2.99731445 42.08813477 C-5 41 -5 41 -6 40 C-6.28478699 35.86152722 -6.23197902 31.70957827 -6.25 27.5625 C-6.270625 26.41072266 -6.29125 25.25894531 -6.3125 24.07226562 C-6.35289111 15.17107566 -5.75880901 7.11791212 0 0 Z " fill="#1D78B3" transform="translate(43,137)"/>
<path d="M0 0 C4.95 0 9.9 0 15 0 C15 10.23 15 20.46 15 31 C27.21 31 39.42 31 52 31 C52 20.77 52 10.54 52 0 C57.28 0 62.56 0 68 0 C68 26.07 68 52.14 68 79 C62.72 79 57.44 79 52 79 C52 67.78 52 56.56 52 45 C39.79 45 27.58 45 15 45 C15 55.89 15 66.78 15 78 C10.05 78 5.1 78 0 78 C0 52.26 0 26.52 0 0 Z " fill="#1A174E" transform="translate(251,101)"/>
<path d="M0 0 C39.24528302 0 39.24528302 0 47.9375 7.3125 C53.03946709 13.00408122 54.64871486 18.60535143 54.41015625 26.15625 C53.48626406 32.56190249 50.46029276 37.96592687 45.8125 42.4375 C38.06762445 48.15840765 29.16490613 48.41613933 19.875 48.1875 C16.28625 48.125625 12.6975 48.06375 9 48 C9 58.23 9 68.46 9 79 C6.03 79 3.06 79 0 79 C0 52.93 0 26.86 0 0 Z " fill="#277AAF" transform="translate(479,101)"/>
<path d="M0 0 C6.75858116 4.42316453 11.75981746 11.42509125 16.72920227 17.66270447 C18.54576186 19.84324383 20.39000662 21.74072581 22.47920227 23.65098572 C23.65482727 24.91942322 23.65482727 24.91942322 24.85420227 26.21348572 C24.67084458 28.73860969 24.2000163 29.87022425 22.39888 31.6580658 C21.78472229 32.09529968 21.17056458 32.53253357 20.53779602 32.98301697 C19.85942688 33.47648621 19.18105774 33.96995544 18.48213196 34.4783783 C17.39786926 35.24444397 17.39786926 35.24444397 16.29170227 36.02598572 C11.0357124 39.82281711 6.02513386 43.59822952 1.43232727 48.20176697 C-0.14579773 49.21348572 -0.14579773 49.21348572 -2.02714539 48.9183197 C-4.23461823 48.18393688 -5.73863636 47.30262608 -7.62236023 45.94786072 C-8.28469666 45.47590271 -8.94703308 45.0039447 -9.62944031 44.51768494 C-10.68941223 43.74835632 -10.68941223 43.74835632 -11.77079773 42.96348572 C-12.50773865 42.43642029 -13.24467957 41.90935486 -14.00395203 41.36631775 C-18.05808395 38.46141884 -22.09133299 35.52777508 -26.12626648 32.59629822 C-26.93434753 32.01009705 -27.74242859 31.42389587 -28.57499695 30.81993103 C-30.13768799 29.68465088 -31.69800122 28.5460889 -33.25566101 27.40391541 C-33.96835144 26.88474548 -34.68104187 26.36557556 -35.41532898 25.83067322 C-36.04028259 25.3728949 -36.66523621 24.91511658 -37.30912781 24.44346619 C-41.18483346 21.84798499 -43.87783701 20.68673497 -48.66142273 21.39707947 C-53.22706104 22.89742287 -57.11029577 25.67389101 -61.09501648 28.30332947 C-66.73796174 31.83649238 -70.60085549 32.63574006 -77.14579773 32.21348572 C-78.13579773 31.55348572 -79.12579773 30.89348572 -80.14579773 30.21348572 C-79.80961473 27.32360489 -79.22745578 26.29218289 -77.09892273 24.24082947 C-76.20689148 23.55118103 -75.31486023 22.86153259 -74.39579773 22.15098572 C-72.91659851 20.98502869 -72.91659851 20.98502869 -71.40751648 19.79551697 C-70.87948425 19.38124451 -70.35145203 18.96697205 -69.80741882 18.54014587 C-66.32125775 15.75674898 -62.95347698 12.83017379 -59.56278992 9.93199158 C-58.09716445 8.68456829 -56.62183148 7.44857569 -55.14579773 6.21348572 C-54.60906433 5.6724823 -54.07233093 5.13147888 -53.51933289 4.57408142 C-49.9216955 2.5117863 -46.34376369 2.92465253 -42.32157898 3.06114197 C-40.55270229 3.08935799 -38.78382194 3.11734545 -37.01493835 3.14512634 C-34.24136734 3.20705499 -31.46812547 3.2757209 -28.69487 3.35044861 C-26.00797145 3.41737519 -23.32149868 3.45898108 -20.63407898 3.49864197 C-19.4101519 3.54372643 -19.4101519 3.54372643 -18.16149902 3.58972168 C-12.67599437 3.65929879 -8.97437467 2.55930333 -4.17160034 -0.11685181 C-2.14579773 -0.78651428 -2.14579773 -0.78651428 0 0 Z " fill="#1A174E" transform="translate(177.1457977294922,141.78651428222656)"/>
<path d="M0 0 C5.33931435 3.22860443 8.97375617 7.60062172 11.60546875 13.23828125 C12.66796875 17.61328125 12.66796875 17.61328125 12.66796875 31.61328125 C-1.19203125 31.61328125 -15.05203125 31.61328125 -29.33203125 31.61328125 C-25.08486987 39.41332652 -25.08486987 39.41332652 -18.33203125 42.61328125 C-12.41402748 43.4822818 -8.25828673 42.56875625 -3.15625 39.48828125 C-1.33203125 38.61328125 -1.33203125 38.61328125 2.66796875 38.61328125 C4.58984375 39.92578125 4.58984375 39.92578125 6.41796875 41.61328125 C7.0315625 42.17015625 7.64515625 42.72703125 8.27734375 43.30078125 C8.73625 43.73390625 9.19515625 44.16703125 9.66796875 44.61328125 C7.17960206 50.69595538 1.23378205 53.52774485 -4.58203125 55.98828125 C-15.25938109 57.76783956 -24.40871713 57.2085091 -33.55078125 51.140625 C-39.37869708 46.5413556 -43.58029799 41.06919997 -44.61425781 33.56494141 C-45.42126614 24.2437924 -45.35393421 15.2575901 -39.33203125 7.61328125 C-28.68155614 -4.31062023 -14.48437759 -6.79254167 0 0 Z " fill="#1D1950" transform="translate(451.33203125,124.38671875)"/>
<path d="M0 0 C5.19152272 3.45798979 7.54394376 7.49493411 9.234375 13.48828125 C10.26025614 21.99769536 9.62146896 29.56754093 4.234375 36.48828125 C-1.89086669 41.64826111 -7.79730555 42.9306755 -15.69140625 42.81640625 C-20.41242789 42.31251067 -23.42563301 40.85058945 -26.765625 37.48828125 C-32.12220429 30.12738017 -34.89218444 23.64319529 -33.765625 14.48828125 C-31.14921418 6.47478982 -26.59954807 1.28686829 -19.390625 -2.88671875 C-12.04039799 -4.6367728 -6.61920097 -3.64878314 0 0 Z " fill="#F9FCFD" transform="translate(580.765625,131.51171875)"/>
<path d="M0 0 C0.92232422 0.51626953 0.92232422 0.51626953 1.86328125 1.04296875 C5.73779176 2.7783528 9.84178336 2.46129186 14 2 C16.02237052 1.04605164 18.0282696 0.05464649 20 -1 C24.13121539 -0.79343923 27.47459249 0.89975723 31 3 C35.46015803 7.94233727 36.12263353 10.51031176 36.0625 17.125 C36.05347656 18.40632813 36.04445312 19.68765625 36.03515625 21.0078125 C36.02355469 21.99523437 36.01195312 22.98265625 36 24 C33.03 24 30.06 24 27 24 C27 21.36 27 18.72 27 16 C26.01 16 25.02 16 24 16 C24 18.31 24 20.62 24 23 C22.83984375 23.02126953 22.83984375 23.02126953 21.65625 23.04296875 C14.16303912 23.38609846 8.44397703 24.55602297 3 30 C0.32941149 30.14115161 -2.32432238 30.04247107 -5 30 C-5 25.38 -5 20.76 -5 16 C-5.99 16 -6.98 16 -8 16 C-8 20.95 -8 25.9 -8 31 C-11.3 31.66 -14.6 32.32 -18 33 C-18.08137993 29.64533852 -18.14068359 26.29267609 -18.1875 22.9375 C-18.21263672 21.99455078 -18.23777344 21.05160156 -18.26367188 20.08007812 C-18.32466042 14.24550737 -17.94825365 10.09065131 -15 5 C-10.63895918 0.68049291 -6.1079881 -2.27273976 0 0 Z " fill="#1F1C51" transform="translate(115,117)"/>
<path d="M0 0 C7.43347047 4.5131785 13.20404645 10.33168414 15.375 18.9375 C16.30514215 28.42730467 15.99227515 37.68151208 10.375 45.625 C5.82593289 51.07052898 -0.49804393 55.71943842 -7.625 56.9375 C-18.18550571 57.79807672 -25.20877534 57.09865476 -33.58203125 50.36328125 C-39.333116 45.16914365 -42.27067449 39.8713184 -42.96875 32.12109375 C-43.30888043 22.85335965 -42.77725666 14.57703194 -36.8125 7.125 C-27.60858697 -2.71680799 -12.37394281 -5.79611497 0 0 Z M-31.37109375 13.09375 C-35.43573654 19.07042101 -36.86813554 24.84962236 -35.625 31.9375 C-32.79106226 39.59857836 -29.66081795 44.79763741 -22.6640625 49.16015625 C-17.34304503 51.18866674 -11.1032357 50.7241879 -5.7578125 49.02734375 C0.5148475 46.1329858 3.51561588 42.92771119 6.4453125 36.640625 C8.67154997 30.16769925 8.32111852 22.37506109 5.875 16 C2.99354055 10.42165857 -1.73960921 7.56515634 -7.0625 4.5625 C-17.08660718 2.11759581 -25.05433811 4.9697482 -31.37109375 13.09375 Z " fill="#2378AF" transform="translate(582.625,124.0625)"/>
<path d="M0 0 C0 4.95 0 9.9 0 15 C-2.041875 15.12375 -2.041875 15.12375 -4.125 15.25 C-9.98795266 15.92189253 -13.41511987 18.02307822 -17.12988281 22.65673828 C-19.27437277 26.49050401 -19.60176469 29.52538467 -19.609375 33.8046875 C-19.62591125 34.5286673 -19.64244751 35.25264709 -19.65948486 35.99856567 C-19.70772545 38.29079877 -19.72928056 40.58236976 -19.75 42.875 C-19.77818001 44.43753288 -19.80811027 46.00003524 -19.83984375 47.5625 C-19.91674731 51.37529738 -19.95748102 55.18604731 -20 59 C-24.95 59 -29.9 59 -35 59 C-35 39.86 -35 20.72 -35 1 C-30.05 1 -25.1 1 -20 1 C-19.67 3.97 -19.34 6.94 -19 10 C-18.443125 9.071875 -17.88625 8.14375 -17.3125 7.1875 C-14.63095865 3.49132139 -12.3239951 1.82464342 -8.0625 0.3125 C-5.40333188 -0.09040426 -2.68951798 0 0 0 Z " fill="#211D53" transform="translate(402,121)"/>
<path d="M0 0 C6.1875 -0.1546875 6.1875 -0.1546875 12.5 -0.3125 C13.78455078 -0.35802002 15.06910156 -0.40354004 16.39257812 -0.45043945 C23.52599181 -0.53644436 28.65832701 -0.00163794 34 5 C37.90219106 9.74947955 37.66911 14.6000353 37.55078125 20.53515625 C36.82826729 25.08033275 35.21594696 27.34349542 32.01953125 30.546875 C27.8366829 33.55658407 24.13756253 34.24756474 19.04296875 34.1953125 C18.04031982 34.19031738 17.0376709 34.18532227 16.00463867 34.18017578 C14.74498291 34.16196777 13.48532715 34.14375977 12.1875 34.125 C6.1546875 34.063125 6.1546875 34.063125 0 34 C0 22.78 0 11.56 0 0 Z " fill="#F8FBFC" transform="translate(487,108)"/>
<path d="M0 0 C0.886875 0.515625 1.77375 1.03125 2.6875 1.5625 C11.29613402 10.63646558 9.46006667 23.54358835 9.25 35.125 C9.22990603 37.05466898 9.21166039 38.98435815 9.1953125 40.9140625 C9.15154235 45.60987888 9.08267468 50.30471403 9 55 C6.36 55 3.72 55 1 55 C0.98598145 53.23740845 0.98598145 53.23740845 0.97167969 51.43920898 C0.93164665 47.05732051 0.86585126 42.67612432 0.79248047 38.29467773 C0.76434784 36.40251596 0.74309512 34.51023836 0.72900391 32.61791992 C0.70746714 29.8892113 0.66076331 27.16188409 0.609375 24.43359375 C0.60814636 23.59477158 0.60691772 22.7559494 0.60565186 21.89170837 C0.46389211 16.13823908 -0.71865033 12.75151999 -4 8 C-8.21896218 4.16457984 -12.21571805 3.69980904 -17.72265625 3.7890625 C-22.63084233 4.24368008 -25.69721516 6.43243875 -28.8125 10.0625 C-32.29771667 14.74264809 -32.20655025 18.26186139 -32.31640625 23.9453125 C-32.33718735 24.8303244 -32.35796844 25.7153363 -32.37937927 26.62716675 C-32.44486598 29.45969741 -32.50375562 32.29232225 -32.5625 35.125 C-32.60568606 37.04297857 -32.64930037 38.96094754 -32.69335938 40.87890625 C-32.80054647 45.58584051 -32.9018164 50.29286967 -33 55 C-35.97 55 -38.94 55 -42 55 C-42 36.19 -42 17.38 -42 -2 C-39.36 -2 -36.72 -2 -34 -2 C-33.67 0.97 -33.34 3.94 -33 7 C-32.62875 6.2575 -32.2575 5.515 -31.875 4.75 C-29.40261845 1.12384039 -26.41123266 -1.20324486 -22.203125 -2.59375 C-14.56466455 -4.00226044 -6.76987196 -3.94909198 0 0 Z " fill="#287BB1" transform="translate(681,125)"/>
<path d="M0 0 C0.99 0.33 1.98 0.66 3 1 C5.08622376 5.50673856 6.50934142 10.26766952 8 15 C8.25265625 15.79277344 8.5053125 16.58554688 8.765625 17.40234375 C11.28141673 26.76468298 11.62201301 37.56681959 7.0703125 46.265625 C6.08251055 47.86629678 5.043353 49.4349705 4 51 C-0.63398166 50.15346079 -2.80881215 47.34634965 -5.8125 43.9375 C-6.34439941 43.34694824 -6.87629883 42.75639648 -7.42431641 42.14794922 C-8.95862143 40.43979056 -10.48105676 38.72181759 -12 37 C-12.70253906 36.20980469 -13.40507812 35.41960937 -14.12890625 34.60546875 C-15.24824759 33.33588025 -16.3608812 32.06032726 -17.46484375 30.77734375 C-18.54528984 29.52644561 -19.64339382 28.29069056 -20.75390625 27.06640625 C-21.30949219 26.44636719 -21.86507812 25.82632813 -22.4375 25.1875 C-22.93121094 24.64480469 -23.42492187 24.10210937 -23.93359375 23.54296875 C-25 22 -25 22 -25 19 C-22.7265625 17.01953125 -22.7265625 17.01953125 -19.625 14.8125 C-18.52366988 14.01710404 -17.42342745 13.22020011 -16.32421875 12.421875 C-15.76782715 12.02033203 -15.21143555 11.61878906 -14.63818359 11.20507812 C-11.35699 8.79137148 -8.21869798 6.19746387 -5.05859375 3.62890625 C-3 2 -3 2 0 0 Z " fill="#257AB1" transform="translate(206,117)"/>
<path d="M0 0 C4.62 0 9.24 0 14 0 C14 18.48 14 36.96 14 56 C9.38 56 4.76 56 0 56 C0 37.52 0 19.04 0 0 Z " fill="#17144B" transform="translate(336,123)"/>
<path d="M0 0 C2.31 0 4.62 0 7 0 C7 5.28 7 10.56 7 16 C11.95 16 16.9 16 22 16 C22 17.98 22 19.96 22 22 C17.05 22 12.1 22 7 22 C7.06906932 27.15997451 7.15712862 32.31915352 7.26245117 37.47851562 C7.2956122 39.23200627 7.32367142 40.98560138 7.34643555 42.73925781 C7.3801447 45.26672698 7.43246692 47.79324638 7.48828125 50.3203125 C7.49467117 51.09867462 7.5010611 51.87703674 7.50764465 52.6789856 C7.64068646 57.65483704 8.27737048 62.27737048 12 66 C13.68608966 66.07205511 15.37500659 66.08386068 17.0625 66.0625 C17.98160156 66.05347656 18.90070312 66.04445313 19.84765625 66.03515625 C20.55792969 66.02355469 21.26820313 66.01195312 22 66 C22 68.31 22 70.62 22 73 C17.96381191 75.01809405 13.36559455 74.72759909 9 74 C5.36041705 71.9037845 1.71958562 69.28669114 0.41578674 65.14349365 C-0.00713266 62.96322919 -0.12037436 61.00129243 -0.11352539 58.78222656 C-0.11344986 57.96167786 -0.11337433 57.14112915 -0.11329651 56.29571533 C-0.10813522 55.41953552 -0.10297394 54.54335571 -0.09765625 53.640625 C-0.0962413 52.73624695 -0.09482635 51.8318689 -0.09336853 50.90008545 C-0.08777911 48.01668973 -0.07522853 45.13337218 -0.0625 42.25 C-0.05748363 40.29296987 -0.05292096 38.33593853 -0.04882812 36.37890625 C-0.03781313 31.58590747 -0.02055574 26.79296698 0 22 C-3.63 22 -7.26 22 -11 22 C-11 20.02 -11 18.04 -11 16 C-7.37 16 -3.74 16 0 16 C0 10.72 0 5.44 0 0 Z " fill="#1E75AE" transform="translate(711,107)"/>
<path d="M0 0 C3.62634232 2.42264046 5.92026778 4.67165141 6.796875 9.0546875 C7.53307991 15.91424752 7.09102975 20.5493609 2.796875 26.0546875 C-0.55734133 28.91638599 -3.8603576 30.29357222 -8.265625 30.5546875 C-14.35621682 29.78127901 -18.235899 26.60965069 -22.203125 22.0546875 C-23.66773378 17.66086115 -23.92750124 13.63789041 -23.203125 9.0546875 C-18.59739202 -0.02175697 -9.86332061 -4.23213402 0 0 Z " fill="#1B194F" transform="translate(132.203125,84.9453125)"/>
<path d="M0 0 C2.96069391 2.11563755 4.63339071 3.76951447 5.5390625 7.3515625 C5.77540011 11.70411345 5.41214693 14.95752047 2.6796875 18.44140625 C-1.49668386 22.23810749 -4.13759653 23.51154138 -9.96875 23.40234375 C-13.85738975 22.54944507 -16.47676605 19.84317126 -19.0703125 16.94140625 C-20.81611474 13.44980178 -20.64014381 9.75095267 -20.0703125 5.94140625 C-18.36931225 2.58881239 -15.95072059 0.48868695 -12.7578125 -1.49609375 C-8.05454355 -2.48049888 -4.24035227 -2.16818012 0 0 Z " fill="#1B194D" transform="translate(131.0703125,44.05859375)"/>
<path d="M0 0 C3.43177746 2.0085448 6.2103492 4.4206984 8 8 C8.06950541 9.54023996 8.08452357 11.08334988 8.0625 12.625 C8.05347656 13.44226563 8.04445312 14.25953125 8.03515625 15.1015625 C8.02355469 15.72804688 8.01195312 16.35453125 8 17 C7.34 17 6.68 17 6 17 C5.690625 18.1446875 5.690625 18.1446875 5.375 19.3125 C3.52607642 22.92630518 1.76971055 23.62260576 -2 25 C-5.95353844 25.57655769 -7.63153793 25.19506815 -11.1875 23.3125 C-15.47162208 19.78999962 -16.82029636 17.61733279 -17.4375 12.0625 C-17.27681098 7.81227539 -15.72994473 5.27593367 -13 2 C-8.74617755 -0.83588164 -4.99180359 -0.89112379 0 0 Z " fill="#237AB3" transform="translate(194,73)"/>
<path d="M0 0 C3.53536291 2.02020738 5.76937948 4.08438925 7 8 C7.47357835 12.26220512 7.29830613 14.4460029 5.25 18.25 C0.83455805 23.64665127 0.83455805 23.64665127 -3.0078125 24.38671875 C-7.67613215 24.74277703 -10.38315761 24.17507946 -14 21.125 C-17.1121316 18.14254055 -17.94239246 16.6912905 -18.3125 12.25 C-18.26462501 7.86145908 -16.82706424 5.39247708 -14 2 C-9.54422653 -0.97051564 -5.22557394 -0.62737491 0 0 Z " fill="#227AB3" transform="translate(66,90)"/>
<path d="M0 0 C2.45948892 0.95206023 3.7272599 1.48793855 4.98828125 3.85546875 C5 6 5 6 3.48046875 8.11328125 C-1.99042359 13.36049145 -7.64005499 17.87068288 -14 22 C-13.34 22.969375 -12.68 23.93875 -12 24.9375 C-8.54231237 31.645901 -9.70037759 39.67589661 -10 47 C-12.31 47 -14.62 47 -17 47 C-17.03867188 45.37191406 -17.03867188 45.37191406 -17.078125 43.7109375 C-17.13443738 42.26558651 -17.191784 40.82027556 -17.25 39.375 C-17.26417969 38.66214844 -17.27835938 37.94929688 -17.29296875 37.21484375 C-17.52986957 32.05040593 -18.71721153 29.15587051 -22 25 C-22.7425 24.05125 -23.485 23.1025 -24.25 22.125 C-24.8275 21.42375 -25.405 20.7225 -26 20 C-25.04480469 19.39414063 -24.08960938 18.78828125 -23.10546875 18.1640625 C-14.67682304 12.7315156 -7.17903403 7.01485654 0 0 Z " fill="#2579AF" transform="translate(173,94)"/>
<path d="M0 0 C2.31 0 4.62 0 7 0 C7 18.48 7 36.96 7 56 C4.69 56 2.38 56 0 56 C0 37.52 0 19.04 0 0 Z " fill="#1871AC" transform="translate(613,123)"/>
<path d="M0 0 C4.84486895 1.87479654 9.57078149 4.00675795 14.3125 6.125 C15.14845703 6.49753906 15.98441406 6.87007813 16.84570312 7.25390625 C18.89751336 8.16842738 20.9489319 9.08381593 23 10 C22.19175781 11.03125 21.38351563 12.0625 20.55078125 13.125 C16.85661041 19.03567335 17.21973825 25.21563983 17.1875 32 C17.16236328 33.25167969 17.13722656 34.50335938 17.11132812 35.79296875 C17.05275318 38.86229574 17.0162541 41.93020599 17 45 C14.69 45 12.38 45 10 45 C9.94171365 40.79172527 9.906307 36.58355511 9.875 32.375 C9.85824219 31.18519531 9.84148437 29.99539062 9.82421875 28.76953125 C9.81777344 27.61582031 9.81132813 26.46210938 9.8046875 25.2734375 C9.79421387 24.21560059 9.78374023 23.15776367 9.77294922 22.06787109 C10.01729143 18.76636112 10.83117023 16.08587237 12 13 C11.27425781 12.88785156 10.54851562 12.77570313 9.80078125 12.66015625 C6.87436007 11.97038613 4.77712191 10.94489186 2.1875 9.4375 C1.39730469 8.98246094 0.60710937 8.52742188 -0.20703125 8.05859375 C-0.79871094 7.70925781 -1.39039062 7.35992187 -2 7 C-1.34 4.69 -0.68 2.38 0 0 Z " fill="#2679AE" transform="translate(76,106)"/>
<path d="M0 0 C1.4606285 2.64738916 2 3.89448334 2 7 C0.09052471 8.51179443 -1.76936586 9.81795313 -3.8125 11.125 C-12.93164632 17.1932004 -21.19428611 24.11875005 -29.22265625 31.56640625 C-31 33 -31 33 -33 33 C-34.625 31 -34.625 31 -36 29 C-32.33843468 19.99171715 -9.97975077 0 0 0 Z " fill="#267AB1" transform="translate(108,61)"/>
<path d="M0 0 C3.83525095 0.62320112 7.00722163 1.76569872 10.52734375 3.3984375 C11.56697266 3.87796875 12.60660156 4.3575 13.67773438 4.8515625 C14.75345703 5.35429688 15.82917969 5.85703125 16.9375 6.375 C18.00935547 6.87 19.08121094 7.365 20.18554688 7.875 C25.1607375 10.17929881 30.11799492 12.50380957 35 15 C34.67 16.98 34.34 18.96 34 21 C30.61214067 22.121092 30.08149303 22.03386366 26.53125 20.55859375 C25.18136553 19.86334619 23.8378805 19.15557592 22.5 18.4375 C21.79456055 18.07197021 21.08912109 17.70644043 20.36230469 17.32983398 C18.92468411 16.58485263 17.4894418 15.8352635 16.05664062 15.08105469 C13.13542186 13.54554226 10.1959848 12.05000464 7.25 10.5625 C5.86554688 9.85287109 5.86554688 9.85287109 4.453125 9.12890625 C2.28535575 8.13131817 0.33017172 7.4736564 -2 7 C-1.34 4.69 -0.68 2.38 0 0 Z " fill="#2B7CB1" transform="translate(140,58)"/>
<path d="M0 0 C2.88001035 1.85218057 4.54389567 3.91472976 6 7 C6.33 8.65 6.66 10.3 7 12 C-2.24 12 -11.48 12 -21 12 C-19.8565811 6.28290548 -18.80917917 5.0878996 -15 1 C-10.50993086 -1.24503457 -4.84697953 -0.72351757 0 0 Z " fill="#EEEEF1" transform="translate(443,134)"/>
<path d="M0 0 C3.82720081 1.18295298 5.84033716 1.99312573 8.4375 5.0625 C9.29689881 9.98451136 9.29689881 9.98451136 8.4375 13.0625 C5.58559128 16.32182425 3.68811619 17.80195496 -0.5625 18.6875 C-4.81311619 17.80195496 -6.71059128 16.32182425 -9.5625 13.0625 C-10.43257346 10.1854571 -10.42534737 7.9405882 -9.5625 5.0625 C-6.46048036 1.35520823 -4.87521 0.08553 0 0 Z " fill="#1E194F" transform="translate(343.5625,95.9375)"/>
<path d="M0 0 C2 3 2 3 1.9375 4.875 C0.56044528 7.99632404 -1.4814811 9.69582314 -4 12 C-4.63808594 12.63035156 -5.27617188 13.26070312 -5.93359375 13.91015625 C-6.95646484 14.88275391 -6.95646484 14.88275391 -8 15.875 C-8.9590625 16.79925781 -8.9590625 16.79925781 -9.9375 17.7421875 C-12 19 -12 19 -14.625 18.8203125 C-17 18 -17 18 -19 16 C-19.4609375 13.734375 -19.4609375 13.734375 -19 11 C-17.25600148 8.86520583 -15.62491457 7.10492076 -13.625 5.25 C-13.11710937 4.75628906 -12.60921875 4.26257813 -12.0859375 3.75390625 C-7.69476317 -0.46393225 -6.02085951 -1.50521488 0 0 Z " fill="#1D1C4F" transform="translate(107,204)"/>
<path d="M0 0 C2.6640625 0.84765625 2.6640625 0.84765625 3.6640625 1.84765625 C4.17336762 5.75979121 4.02069806 7.36221639 1.65234375 10.5859375 C0.76933594 11.43542969 -0.11367187 12.28492188 -1.0234375 13.16015625 C-1.89355469 14.02253906 -2.76367188 14.88492188 -3.66015625 15.7734375 C-6.3987641 17.89635833 -7.91212318 18.63945133 -11.3359375 18.84765625 C-13.6484375 17.78515625 -13.6484375 17.78515625 -15.3359375 15.84765625 C-15.79296875 13.06640625 -15.79296875 13.06640625 -15.3359375 9.84765625 C-13.47503306 7.68262342 -11.9069916 6.14675222 -9.7109375 4.41015625 C-9.18886719 3.95189453 -8.66679688 3.49363281 -8.12890625 3.02148438 C-5.24645426 0.66214404 -3.76578436 -0.17197376 0 0 Z " fill="#201E51" transform="translate(91.3359375,195.15234375)"/>
<path d="M0 0 C2 2 2 2 2.1875 5.125 C1.3693771 9.91253401 -2.11634043 12.48046724 -5.578125 15.59375 C-8 17 -8 17 -10.671875 16.90625 C-13 16 -13 16 -15 13 C-15.3828125 10.58203125 -15.3828125 10.58203125 -15 8 C-13.2421875 5.76171875 -13.2421875 5.76171875 -10.875 3.6875 C-10.10929687 2.99011719 -9.34359375 2.29273438 -8.5546875 1.57421875 C-5.43462902 -0.34838609 -3.60473138 -0.45433595 0 0 Z " fill="#211F51" transform="translate(115,216)"/>
<path d="M0 0 C3.125 0.375 3.125 0.375 5.5 2.0625 C7.125 4.375 7.125 4.375 7.5625 6.9375 C7.125 9.375 7.125 9.375 6.0625 11.1875 C2.99886726 13.06521039 0.62335955 12.81229494 -2.875 12.375 C-4.875 10.75 -4.875 10.75 -5.875 8.375 C-5.58844949 3.59915821 -5.19565949 0.67769472 0 0 Z " fill="#2B7DB3" transform="translate(615.875,97.625)"/>
<path d="M0 0 C3.0625 0.125 3.0625 0.125 5.0625 1.125 C5.1875 3.5 5.1875 3.5 5.0625 6.125 C3.0625 8.125 3.0625 8.125 0.5625 8.375 C-1.9375 8.125 -1.9375 8.125 -3.9375 6.125 C-4.125 3.5625 -4.125 3.5625 -3.9375 1.125 C-2.9375 0.125 -2.9375 0.125 0 0 Z " fill="#E7F2F5" transform="translate(195.9375,134.875)"/>
<path d="M0 0 C4.55555556 0.55555556 4.55555556 0.55555556 6 2 C6.1875 4.4375 6.1875 4.4375 6 7 C5.34 7.66 4.68 8.32 4 9 C-0.55555556 8.44444444 -0.55555556 8.44444444 -2 7 C-2.1875 4.5625 -2.1875 4.5625 -2 2 C-1.34 1.34 -0.68 0.68 0 0 Z " fill="#EDF7F9" transform="translate(207,148)"/>
<path d="M0 0 C2.64 0 5.28 0 8 0 C8 2.31 8 4.62 8 7 C5.36 7 2.72 7 0 7 C0 4.69 0 2.38 0 0 Z " fill="#4689B3" transform="translate(120,72)"/>
<path d="M0 0 C0.33 0.66 0.66 1.32 1 2 C-0.0725 2.28875 -1.145 2.5775 -2.25 2.875 C-5.09400364 3.72820109 -7.43508983 4.5636503 -10 6 C-10 8.31 -10 10.62 -10 13 C-10.33 13 -10.66 13 -11 13 C-11.71105791 6.00793057 -11.71105791 6.00793057 -9.83984375 3.35546875 C-6.66083675 0.53420167 -4.21335054 -0.61961037 0 0 Z " fill="#444068" transform="translate(345,96)"/>
<path d="M0 0 C-1.65 1.98 -3.3 3.96 -5 6 C-5.4125 5.54625 -5.825 5.0925 -6.25 4.625 C-8.06408095 2.94049626 -9.75285627 2.00734029 -12 1 C-7.9472484 0.01751476 -4.16138263 -0.08159574 0 0 Z " fill="#3F87B1" transform="translate(109,153)"/>
<path d="M0 0 C2.475 0.99 2.475 0.99 5 2 C2 4 2 4 0 4 C0.33 5.32 0.66 6.64 1 8 C0.01 7.67 -0.98 7.34 -2 7 C-1.34 4.69 -0.68 2.38 0 0 Z " fill="#458AB1" transform="translate(76,106)"/>
<path d="M0 0 C0.99 0.33 1.98 0.66 3 1 C1.02 2.98 -0.96 4.96 -3 7 C-3.66 6.67 -4.32 6.34 -5 6 C-3.35 4.02 -1.7 2.04 0 0 Z " fill="#252453" transform="translate(416,128)"/>
<path d="M0 0 C2.9375 0.375 2.9375 0.375 6 1 C6.33 1.66 6.66 2.32 7 3 C6.071875 2.979375 5.14375 2.95875 4.1875 2.9375 C0.97713989 2.84230396 0.97713989 2.84230396 -2 4 C-1.34 2.68 -0.68 1.36 0 0 Z " fill="#357FAE" transform="translate(43,137)"/>
</svg>
